<?xml version="1.0" encoding="UTF-8" standalone="no"?>
<!-- Created with Inkscape (http://www.inkscape.org/) -->

<svg
   width="1024"
   height="1024"
   viewBox="0 0 270.93333 270.93333"
   version="1.1"
   id="svg1"
   xml:space="preserve"
   inkscape:version="1.3.2 (091e20e, 2023-11-25)"
   sodipodi:docname="logo.svg"
   xmlns:inkscape="http://www.inkscape.org/namespaces/inkscape"
   xmlns:sodipodi="http://sodipodi.sourceforge.net/DTD/sodipodi-0.dtd"
   xmlns="http://www.w3.org/2000/svg"
   xmlns:svg="http://www.w3.org/2000/svg"><sodipodi:namedview
   id="namedview1"
   pagecolor="#505050"
   bordercolor="#eeeeee"
   borderopacity="1"
   inkscape:showpageshadow="0"
   inkscape:pageopacity="0"
   inkscape:pagecheckerboard="0"
   inkscape:deskcolor="#505050"
   inkscape:document-units="px"
   inkscape:zoom="0.66213034"
   inkscape:cx="755.89347"
   inkscape:cy="554.27154"
   inkscape:window-width="1664"
   inkscape:window-height="1051"
   inkscape:window-x="71"
   inkscape:window-y="38"
   inkscape:window-maximized="1"
   inkscape:current-layer="layer1"><inkscape:page
     x="0"
     y="0"
     width="270.93332"
     height="270.93332"
     id="page1"
     margin="0"
     bleed="0"
     inkscape:export-filename="Page 1.png"
     inkscape:export-xdpi="12.000001"
     inkscape:export-ydpi="12.000001" /><inkscape:page
     x="280.93332"
     y="0"
     width="81.491669"
     height="141.28751"
     id="page2"
     margin="0"
     bleed="0" /><inkscape:page
     x="372.42499"
     y="0"
     width="211.66666"
     height="211.66666"
     id="page3"
     margin="0"
     bleed="0" /></sodipodi:namedview><defs
   id="defs1" /><g
   inkscape:label="Layer 1"
   inkscape:groupmode="layer"
   id="layer1"><rect
     style="fill:#000000;fill-opacity:1;stroke:#ffffff;stroke-width:0;stroke-linecap:round;stroke-linejoin:round"
     id="rect3"
     width="277.31824"
     height="277.71786"
     x="-2.7971582"
     y="-2.7971582" /><path
     d="m 222.83493,145.70718 h -18.27978 l 8.1949,-8.19416 c 2.17672,-2.17595 2.17672,-5.70398 7.7e-4,-7.87918 -2.17596,-2.17596 -5.70399,-2.17671 -7.8792,-7.5e-4 l -16.07558,16.07409 h -27.01848 l 12.02159,-12.92048 c 2.09571,-2.25247 1.96868,-5.77754 -0.28454,-7.87474 -0.92343,-0.85877 -2.06154,-1.3387 -3.2279,-1.45681 -0.70723,-0.035 -15.9686,-0.002 -15.9686,-0.002 l 17.86225,-17.86227 h 22.4244 c 3.07783,0 5.57175,-2.49392 5.57175,-5.57176 0,-3.077831 -2.49392,-5.571739 -5.57175,-5.571739 h -11.28165 l 13.14188,-13.141885 c 2.17595,-2.17668 2.17595,-5.703968 0,-7.880667 -2.17669,-2.175199 -5.82729,-2.175199 -8.004,0 L 175.042,86.721299 V 75.132278 c 0,-3.077834 -2.49389,-5.571738 -5.57174,-5.571738 -3.07779,0 -5.57173,2.493904 -5.57173,5.571738 v 22.733425 l -18.45137,18.575467 -0.3083,-16.822967 c -7.4e-4,-0.0266 0.0261,-0.052 0.0253,-0.0788 -0.0261,-1.355058 -0.52301,-2.704893 -1.53781,-3.758317 -2.13435,-2.215329 -5.77829,-2.280703 -7.99434,-0.14417 L 123.78209,106.94835 V 80.782967 l 15.95004,-15.826708 c 2.17594,-2.176697 2.23762,-5.703983 0.0617,-7.879932 -2.17669,-2.1752 -5.79684,-2.1752 -7.97277,0 l -8.03894,7.946058 V 46.901589 c 0,-3.077834 -2.49389,-5.571738 -5.57172,-5.571738 -3.07783,0 -5.57175,2.493904 -5.57175,5.571738 v 18.121523 l -7.82272,-7.946036 c -2.17671,-2.1752 -5.641564,-2.1752 -7.818252,0 -2.175948,2.176701 -2.268788,5.703965 -0.093,7.879914 L 112.63852,80.783716 V 107.09795 L 100.62143,95.601572 c -2.235388,-2.115026 -5.69801,-2.019195 -7.815263,0.214693 -0.798622,0.84395 -1.250298,1.872101 -1.421918,2.93817 -0.105348,0.433121 -0.150774,0.882558 -0.14933,1.345385 L 91.16952,115.87085 72.522756,97.339957 V 75.131791 c 0,-3.077835 -2.493917,-5.571739 -5.571747,-5.571739 -3.07783,0 -5.57173,2.493904 -5.57173,5.571739 V 86.196518 L 48.730528,73.424604 c -2.176679,-2.17522 -5.641559,-2.17522 -7.818259,0 -2.17595,2.176701 -2.144743,5.703968 0.03125,7.880668 L 54.116603,94.447157 H 42.31046 c -3.077833,0 -5.571738,2.493908 -5.571738,5.571733 0,3.07783 2.493905,5.57177 5.571738,5.57177 h 22.94962 l 18.382298,18.38228 -17.129033,0.61734 c -2.987205,0.10857 -5.589562,2.55187 -5.618541,5.51084 -0.0021,0.0831 -0.259268,0.16709 -0.259268,0.25035 0,0.002 0,0.006 0,0.008 0,0.006 0.256288,0.0129 0.256288,0.0187 0.03333,1.39294 0.709476,2.77547 1.779251,3.83186 l 11.768258,11.49804 H 48.643654 L 32.568839,129.63295 c -2.176699,-2.1752 -5.703985,-2.1752 -7.879936,0 -2.175949,2.17669 -2.175949,5.70397 0,7.87992 l 8.194182,8.19419 H 14.080317 c -3.077833,0 -5.5717371,2.49389 -5.5717371,5.57174 0,3.0778 2.4939041,5.57173 5.5717371,5.57173 H 32.66763 l -7.978727,7.97873 c -2.175949,2.1767 -2.175949,5.70398 0,7.87993 1.08834,1.08761 2.514716,1.6314 3.940344,1.6314 1.425626,0 2.851983,-0.54379 3.940321,-1.6314 l 15.857901,-15.85794 h 26.021528 l -11.33143,12.17909 c -2.095725,2.25247 -1.968685,5.77754 0.284507,7.87474 1.07277,0.99846 2.434493,1.4925 3.793251,1.4925 0.02529,0 0.05058,-0.005 0.07652,-0.005 0.01675,0 0.0327,0.002 0.04832,0.002 0.01289,0 0.02755,0 0.04091,0 l 16.347487,-0.0929 -18.664613,18.66459 H 42.310604 c -3.077834,0 -5.571738,2.49392 -5.571738,5.57175 0,3.07781 2.493904,5.57173 5.571738,5.57173 h 11.589958 l -12.925691,12.92568 c -2.175949,2.17671 -2.175949,5.70399 0,7.87994 1.088341,1.08761 2.514716,1.6314 3.940333,1.6314 1.425626,0 2.727922,-0.54379 3.816262,-1.6314 L 61.37931,216.1448 v 11.28092 c 0,3.07783 2.493917,5.57175 5.571747,5.57175 3.077831,0 5.571732,-2.49392 5.571732,-5.57175 v -22.42438 l 18.90308,-18.779 0.725801,18.1193 c 0.110017,3.00577 2.61277,5.42761 5.595505,5.36744 1.013314,-0.0208 2.112778,-0.34545 3.203355,-1.14628 0.7897,-0.58021 11.68877,-11.74672 11.68877,-11.74672 v 26.28747 L 97.059988,238.8057 c -2.176678,2.17594 -2.114278,5.70399 0.061,7.87994 1.088344,1.08833 2.544415,1.63213 3.970772,1.63213 1.42562,0 2.74354,-0.5438 3.83113,-1.63141 l 7.71649,-7.82422 v 18.27903 c 0,3.07785 2.49392,5.57175 5.57173,5.57175 3.07783,0 5.57176,-2.4939 5.57176,-5.57175 v -18.80275 l 8.47202,8.34794 c 1.08834,1.08761 2.57638,1.63141 4.002,1.63141 1.42561,0 2.88318,-0.5438 3.97078,-1.63141 2.17595,-2.17667 2.0675,-5.70396 -0.10857,-7.87992 l -16.33634,-16.22863 v -26.52239 c 0,0 10.19925,9.5804 11.8091,11.12566 1.60988,1.5452 2.92853,2.41441 4.84743,2.41441 0.01,0 0.0223,0 0.0342,0 3.07708,0 5.55688,-2.6774 5.53833,-5.7545 l -0.22734,-17.60371 18.11483,18.2389 v 22.94812 c 0,3.07784 2.49392,5.57175 5.57175,5.57175 3.07783,0 5.57174,-2.49391 5.57174,-5.57175 v -11.8054 l 13.41973,13.29566 c 1.08834,1.0876 2.57562,1.63142 4.00199,1.63142 1.42564,0 2.88245,-0.54382 3.97081,-1.63142 2.17594,-2.17668 2.19154,-5.70397 0.0145,-7.87992 l -12.91162,-12.9257 h 11.06548 c 3.07784,0 5.57174,-2.4939 5.57174,-5.57173 0,-3.07784 -2.4939,-5.57174 -5.57174,-5.57174 h -22.20822 l -19.1237,-19.12371 17.1305,-0.61734 c 0.0609,-0.002 0.12049,-0.0129 0.18062,-0.0145 0.0223,-9.1e-4 0.0446,-0.005 0.0668,-0.006 2.95451,-0.23699 5.22779,-2.75542 5.12007,-5.74706 -0.0646,-1.80078 -0.98064,-3.36609 -2.34385,-4.33629 l -10.29286,-10.2706 h 25.87889 l 15.85714,15.85794 c 1.08836,1.08833 2.51398,1.63213 3.94036,1.63213 1.42562,0 2.85197,-0.5438 3.9396,-1.63141 2.17669,-2.17595 2.17669,-5.70397 7.2e-4,-7.87916 l -7.97872,-7.97874 h 18.06283 c 3.07783,0 5.57175,-2.49392 5.57175,-5.57175 0,-3.07783 -2.49392,-5.57249 -5.57175,-5.57249 z m -65.89885,-11.15609 -10.37978,11.15609 h -14.49171 l 11.14495,-11.14494 z m -22.72154,-22.06335 0.26445,14.85944 -10.69699,10.63461 v -15.55704 z m -31.90528,0.0603 10.32925,9.89763 v 15.01027 l -10.34486,-10.40653 z m -22.58483,22.71709 14.681173,-0.52895 10.971087,10.97114 H 90.296605 Z m 0.285264,31.96916 9.660654,-10.3835 h 15.490172 l -10.28245,10.28246 z m 22.745296,23.86339 -0.63442,-15.63207 10.51794,-10.57962 v 16.04958 z M 134.66696,190.8488 123.782,180.83603 v -16.47676 l 10.72895,10.66729 z m 22.41472,-24.29277 -14.5712,0.52449 -10.2297,-10.22973 h 15.07487 z"
     id="path1-3"
     style="fill:#58cece;fill-opacity:1;stroke:#1e56ef;stroke-width:1.83301;stroke-linecap:round;stroke-linejoin:round;stroke-dasharray:none;stroke-opacity:1" /><path
     d="M 225.94589,12.606983 V 29.93254 l -12.25093,-12.250932 -5.65134,5.651335 12.25093,12.250931 h -17.32504 v 7.991761 h 17.32504 l -12.25093,12.250931 5.65134,5.651335 12.25093,-12.250932 v 17.325557 h 7.99176 V 49.226452 l 12.25145,12.251449 5.65082,-5.651335 -12.25094,-12.250931 h 17.32556 V 35.583874 H 239.58898 L 251.83992,23.332943 246.1891,17.681608 233.93765,29.933057 V 12.606983 Z"
     style="fill:#ffa304;stroke:#ef4e1e;stroke-width:2.018;stroke-linecap:round;stroke-linejoin:round"
     id="path4" /></g>



</svg>
